<?xml version="1.0" encoding="UTF-8"?>
<svg id="_레이어_1" data-name="레이어 1" xmlns="http://www.w3.org/2000/svg" xmlns:xlink="http://www.w3.org/1999/xlink" viewBox="0 0 318.17 218.81">
  <defs>
    <style>
      .cls-1 {
        fill: url(#_무제_그라디언트_37-2);
      }

      .cls-1, .cls-2, .cls-3 {
        stroke-width: 0px;
      }

      .cls-2 {
        fill: #333944;
      }

      .cls-3 {
        fill: url(#_무제_그라디언트_37);
      }
    </style>
    <linearGradient id="_무제_그라디언트_37" data-name="무제 그라디언트 37" x1="46.3" y1="23.55" x2="100.92" y2="170.25" gradientUnits="userSpaceOnUse">
      <stop offset="0" stop-color="#4fa292"/>
      <stop offset=".49" stop-color="#4b82a6"/>
      <stop offset=".99" stop-color="#475ebd"/>
    </linearGradient>
    <linearGradient id="_무제_그라디언트_37-2" data-name="무제 그라디언트 37" x1="152.36" y1="23.55" x2="206.97" y2="170.25" xlink:href="#_무제_그라디언트_37"/>
  </defs>
  <path class="cls-2" d="M87.11,218.81h60.38c3.64,0,6.91-2.23,8.23-5.63l55.78-115.53c2.26-5.79-2.01-12.05-8.23-12.05h-60.38c-3.64,0-6.91,2.23-8.23,5.63l-55.78,115.53c-2.26,5.79,2.01,12.05,8.23,12.05Z"/>
  <path class="cls-3" d="M147.69,218.81h-60.38c-3.64,0-6.91-2.23-8.23-5.63L.61,12.05C-1.65,6.26,2.63,0,8.85,0h60.38c3.64,0,6.91,2.23,8.23,5.63l78.47,201.14c2.26,5.79-2.01,12.05-8.23,12.05Z"/>
  <path class="cls-2" d="M193.17,218.81h60.38c3.64,0,6.91-2.23,8.23-5.63l55.78-115.53c2.26-5.79-2.01-12.05-8.23-12.05h-60.38c-3.64,0-6.91,2.23-8.23,5.63l-55.78,115.53c-2.26,5.79,2.01,12.05,8.23,12.05Z"/>
  <path class="cls-1" d="M253.75,218.81h-60.38c-3.64,0-6.91-2.23-8.23-5.63L106.67,12.05c-2.26-5.79,2.01-12.05,8.23-12.05h60.38c3.64,0,6.91,2.23,8.23,5.63l78.47,201.14c2.26,5.79-2.01,12.05-8.23,12.05Z"/>
</svg>