<?xml version="1.0" encoding="UTF-8"?>
<svg id="_레이어_1" data-name="레이어 1" xmlns="http://www.w3.org/2000/svg" viewBox="0 0 508.58 358.41">
  <defs>
    <style>
      .cls-1 {
        fill: #fff;
      }

      .cls-1, .cls-2 {
        stroke-width: 0px;
      }

      .cls-2 {
        fill: #adadad;
      }
    </style>
  </defs>
  <path class="cls-2" d="M324.91,140.23h-96.51c-5.82,0-11.05,3.66-13.16,9.22l-21.04,44.66,55.04,144.57c1.1,2.9,1.23,5.87.59,8.59l88.25-187.3c3.61-9.49-3.22-19.74-13.16-19.74Z"/>
  <path class="cls-1" d="M249.23,338.67l-55.04-144.57L123.81,9.22c-2.12-5.56-7.34-9.22-13.16-9.22H14.14C4.2,0-2.63,10.25.98,19.74l124.33,326.58,1.1,2.88c2.12,5.56,7.34,9.22,13.16,9.22h96.51c6.91,0,12.31-4.95,13.75-11.15.64-2.73.51-5.69-.59-8.59Z"/>
  <path class="cls-2" d="M494.44,140.23h-96.51c-5.82,0-11.05,3.66-13.16,9.22l-21.04,44.66,55.04,144.57c1.1,2.9,1.23,5.87.59,8.59l88.25-187.3c3.61-9.49-3.22-19.74-13.16-19.74Z"/>
  <path class="cls-1" d="M418.76,338.67l-55.04-144.57L293.34,9.22c-2.12-5.56-7.34-9.22-13.16-9.22h-96.51c-9.94,0-16.77,10.25-13.16,19.74l124.33,326.58,1.1,2.88c2.12,5.56,7.34,9.22,13.16,9.22h96.51c6.91,0,12.31-4.95,13.75-11.15.64-2.73.51-5.69-.59-8.59Z"/>
</svg>