<?xml version="1.0" encoding="UTF-8"?>
<svg id="_레이어_1" data-name="레이어 1" xmlns="http://www.w3.org/2000/svg" xmlns:xlink="http://www.w3.org/1999/xlink" viewBox="0 0 176.53 123.15">
  <defs>
    <style>
      .cls-1 {
        fill: url(#_무제_그라디언트_37-2);
      }

      .cls-1, .cls-2, .cls-3, .cls-4 {
        stroke-width: 0px;
      }

      .cls-2 {
        fill: #333944;
      }

      .cls-3 {
        fill: #4258a0;
      }

      .cls-4 {
        fill: url(#_무제_그라디언트_37);
      }
    </style>
    <linearGradient id="_무제_그라디언트_37" data-name="무제 그라디언트 37" x1="55.83" y1="6.75" x2="71.49" y2="48.8" gradientUnits="userSpaceOnUse">
      <stop offset="0" stop-color="#4fa292"/>
      <stop offset=".49" stop-color="#4b82a6"/>
      <stop offset=".99" stop-color="#475ebd"/>
    </linearGradient>
    <linearGradient id="_무제_그라디언트_37-2" data-name="무제 그라디언트 37" x1="86.23" y1="6.75" x2="101.89" y2="48.8" xlink:href="#_무제_그라디언트_37"/>
  </defs>
  <g>
    <path class="cls-3" d="M37.26,121.59c-.12.37-.25.59-.37.67-.12.08-.37.12-.74.12h-4.52c-.37,0-.62-.05-.76-.14-.14-.09-.25-.31-.35-.64l-6.73-25.49-7.28,25.49c-.09.34-.21.55-.35.64-.14.09-.39.14-.76.14h-4.47c-.34,0-.58-.04-.71-.12-.14-.08-.27-.3-.39-.67L.11,87.95c-.12-.43-.15-.71-.07-.85.08-.14.35-.21.81-.21h4.42c.31,0,.54.02.69.07.15.05.26.19.32.44l7.24,25.35,6.91-25.16c.09-.34.21-.54.37-.6.15-.06.4-.09.74-.09h4.47c.34,0,.59.03.76.09.17.06.3.26.39.6l6.87,25.16,7.24-25.25c.06-.28.15-.45.28-.51.12-.06.35-.09.69-.09h4.42c.43,0,.69.08.78.23.09.15.08.43-.05.83l-10.14,33.64Z"/>
    <path class="cls-3" d="M75.74,122.37c-.34,0-.6-.04-.78-.12-.18-.08-.35-.3-.51-.67l-2.9-7.6h-14.33l-2.9,7.6c-.15.37-.32.59-.48.67-.17.08-.42.12-.76.12h-4.47c-.49,0-.81-.08-.97-.25-.15-.17-.14-.47.05-.9l13.41-33.55c.21-.52.58-.78,1.11-.78h4.47c.4,0,.66.05.78.16.12.11.26.33.41.67l13.32,33.5c.18.46.21.77.07.92-.14.15-.47.23-.99.23h-4.52ZM59.38,108.31h10l-4.98-13.04-5.02,13.04Z"/>
    <path class="cls-3" d="M101.27,119.84c-.8.89-1.86,1.62-3.18,2.19-1.32.57-2.67.91-4.06,1.04-.74.09-1.57.11-2.51.05-.94-.06-1.85-.16-2.74-.3-.89-.14-1.71-.29-2.44-.46-.74-.17-1.29-.33-1.66-.48-.34-.15-.55-.3-.65-.44-.09-.14-.11-.39-.05-.76l.46-4.47c.03-.31.1-.49.21-.55.11-.06.35-.02.71.14.58.25,1.25.47,2,.67.75.2,1.52.35,2.3.46s1.55.18,2.3.21c.75.03,1.44-.03,2.05-.18,1.29-.31,2.21-.81,2.76-1.52.55-.71.83-1.72.83-3.04,0-.28-.06-.6-.18-.97-.12-.37-.35-.78-.69-1.22-.34-.45-.79-.91-1.36-1.41-.57-.49-1.3-1.01-2.19-1.57-1.69-1.04-3.13-2.01-4.31-2.9-1.18-.89-2.15-1.77-2.9-2.65-.75-.88-1.31-1.77-1.66-2.7-.35-.92-.53-1.94-.53-3.04,0-1.38.28-2.67.85-3.85.57-1.18,1.35-2.21,2.35-3.09,1-.88,2.17-1.56,3.53-2.05,1.35-.49,2.81-.74,4.38-.74s2.91.12,4.03.35c1.12.23,2.05.51,2.79.85.4.18.62.34.67.46.05.12.04.35-.02.69l-.88,3.92c-.06.28-.17.45-.32.51-.15.06-.46.02-.92-.14-1.44-.46-2.77-.74-3.99-.83-1.21-.09-2.27.02-3.16.32-.89.31-1.59.79-2.1,1.45-.51.66-.76,1.5-.76,2.51,0,.74.33,1.49.99,2.26.66.77,1.73,1.6,3.2,2.49,1.87,1.17,3.43,2.21,4.68,3.13,1.24.92,2.24,1.82,2.97,2.7.74.88,1.26,1.77,1.57,2.67.31.91.46,1.91.46,3.02,0,1.47-.25,2.81-.76,4.01-.51,1.2-1.21,2.29-2.1,3.27Z"/>
    <path class="cls-3" d="M134.36,122.37c-.34,0-.6-.04-.78-.12-.18-.08-.35-.3-.51-.67l-2.9-7.6h-14.33l-2.9,7.6c-.15.37-.32.59-.48.67-.17.08-.42.12-.76.12h-4.47c-.49,0-.81-.08-.97-.25-.15-.17-.14-.47.05-.9l13.41-33.55c.21-.52.58-.78,1.11-.78h4.47c.4,0,.66.05.78.16.12.11.26.33.41.67l13.32,33.5c.18.46.21.77.07.92-.14.15-.47.23-.99.23h-4.52ZM118,108.31h10l-4.98-13.04-5.02,13.04Z"/>
    <path class="cls-3" d="M144.13,122.37c-.28,0-.49-.03-.65-.09-.15-.06-.23-.31-.23-.74v-33.64c0-.34.04-.59.12-.76.08-.17.33-.25.76-.25h8.2c1.72,0,3.28.19,4.68.58,1.4.38,2.59.96,3.57,1.73.98.77,1.74,1.74,2.28,2.93.54,1.18.81,2.56.81,4.12,0,.77-.11,1.53-.35,2.28-.23.75-.56,1.46-.99,2.12-.43.66-.95,1.26-1.57,1.8-.61.54-1.31.99-2.07,1.36.92.34,1.74.78,2.47,1.34.72.55,1.34,1.18,1.84,1.87.51.69.89,1.42,1.15,2.19.26.77.39,1.54.39,2.3,0,3.5-1.11,6.19-3.32,8.06-2.21,1.87-5.56,2.81-10.05,2.81h-7.05ZM149.43,106.52v10.28h1.84c1.38,0,2.52-.13,3.41-.39.89-.26,1.61-.61,2.14-1.06.54-.45.91-.98,1.13-1.61.21-.63.32-1.31.32-2.05s-.12-1.42-.35-2.05c-.23-.63-.63-1.17-1.2-1.64-.57-.46-1.34-.82-2.3-1.08-.97-.26-2.17-.39-3.62-.39h-1.38ZM149.52,92.46v8.89h2.03c1.11,0,2.03-.12,2.77-.37.74-.25,1.33-.58,1.77-1.01.44-.43.76-.93.94-1.5.18-.57.28-1.19.28-1.87,0-.55-.08-1.08-.23-1.59-.15-.51-.42-.95-.81-1.31-.38-.37-.9-.67-1.54-.9s-1.44-.35-2.4-.35h-2.81Z"/>
    <path class="cls-3" d="M171.18,122.37c-.34,0-.58-.06-.71-.18-.14-.12-.21-.37-.21-.74v-33.64c0-.61.31-.92.92-.92h4.42c.61,0,.92.31.92.92v33.64c0,.37-.07.62-.21.74-.14.12-.38.18-.71.18h-4.42Z"/>
  </g>
  <path class="cls-2" d="M67.53,62.72h17.31c1.04,0,1.98-.64,2.36-1.61l15.99-33.11c.65-1.66-.58-3.45-2.36-3.45h-17.31c-1.04,0-1.98.64-2.36,1.61l-15.99,33.11c-.65,1.66.58,3.45,2.36,3.45Z"/>
  <path class="cls-4" d="M84.9,62.72h-17.31c-1.04,0-1.98-.64-2.36-1.61L42.74,3.45c-.65-1.66.58-3.45,2.36-3.45h17.31c1.04,0,1.98.64,2.36,1.61l22.49,57.65c.65,1.66-.58,3.45-2.36,3.45Z"/>
  <path class="cls-2" d="M97.93,62.72h17.31c1.04,0,1.98-.64,2.36-1.61l15.99-33.11c.65-1.66-.58-3.45-2.36-3.45h-17.31c-1.04,0-1.98.64-2.36,1.61l-15.99,33.11c-.65,1.66.58,3.45,2.36,3.45Z"/>
  <path class="cls-1" d="M115.3,62.72h-17.31c-1.04,0-1.98-.64-2.36-1.61L73.14,3.45c-.65-1.66.58-3.45,2.36-3.45h17.31c1.04,0,1.98.64,2.36,1.61l22.49,57.65c.65,1.66-.58,3.45-2.36,3.45Z"/>
</svg>