<?xml version="1.0" encoding="UTF-8"?>
<svg id="_레이어_1" data-name="레이어 1" xmlns="http://www.w3.org/2000/svg" viewBox="0 0 463.22 323.15">
  <defs>
    <style>
      .cls-1 {
        fill: #fff;
      }

      .cls-1, .cls-2 {
        stroke-width: 0px;
      }

      .cls-2 {
        fill: #adadad;
      }
    </style>
  </defs>
  <g>
    <path class="cls-1" d="M97.77,319.06c-.32.97-.65,1.55-.97,1.75-.32.2-.97.3-1.93.3h-11.85c-.97,0-1.63-.12-1.99-.36-.36-.24-.67-.8-.91-1.69l-17.66-66.88-19.11,66.88c-.24.89-.54,1.45-.91,1.69-.36.24-1.03.36-1.99.36h-11.73c-.89,0-1.51-.1-1.87-.3-.36-.2-.71-.79-1.03-1.75L.3,230.78c-.32-1.13-.38-1.88-.18-2.24.2-.36.91-.54,2.12-.54h11.61c.81,0,1.41.06,1.81.18.4.12.68.5.85,1.15l18.99,66.51,18.14-66.03c.24-.88.56-1.41.97-1.57.4-.16,1.05-.24,1.94-.24h11.73c.89,0,1.55.08,1.99.24.44.16.79.69,1.03,1.57l18.02,66.03,18.99-66.27c.16-.73.4-1.17.73-1.33.32-.16.93-.24,1.81-.24h11.61c1.13,0,1.81.2,2.06.6.24.4.2,1.13-.12,2.18l-26.61,88.28Z"/>
    <path class="cls-1" d="M198.75,321.12c-.89,0-1.57-.1-2.06-.3-.48-.2-.93-.79-1.33-1.75l-7.62-19.96h-37.61l-7.62,19.96c-.4.97-.83,1.55-1.27,1.75-.44.2-1.11.3-1.99.3h-11.73c-1.29,0-2.14-.22-2.54-.67-.4-.44-.36-1.23.12-2.36l35.19-88.04c.56-1.37,1.53-2.06,2.9-2.06h11.73c1.05,0,1.73.14,2.06.42.32.28.68.87,1.09,1.75l34.95,87.92c.48,1.21.54,2.02.18,2.42-.36.4-1.23.6-2.6.6h-11.85ZM155.82,284.23h26.24l-13.06-34.22-13.18,34.22Z"/>
    <path class="cls-1" d="M265.74,314.46c-2.1,2.34-4.88,4.25-8.34,5.75-3.47,1.49-7.01,2.4-10.64,2.72-1.94.24-4.13.28-6.59.12-2.46-.16-4.86-.42-7.2-.79-2.34-.36-4.47-.77-6.41-1.21-1.93-.44-3.39-.86-4.35-1.27-.89-.4-1.45-.79-1.69-1.15-.24-.36-.28-1.03-.12-1.99l1.21-11.73c.08-.8.26-1.29.54-1.45.28-.16.91-.04,1.87.36,1.53.65,3.28,1.23,5.26,1.76,1.97.53,3.99.93,6.05,1.21,2.06.28,4.07.46,6.05.54,1.98.08,3.77-.08,5.38-.48,3.39-.8,5.8-2.13,7.26-3.99,1.45-1.85,2.18-4.52,2.18-7.98,0-.73-.16-1.57-.48-2.54-.32-.97-.93-2.03-1.81-3.2-.89-1.17-2.08-2.4-3.57-3.69-1.49-1.29-3.41-2.66-5.74-4.11-4.44-2.74-8.2-5.28-11.31-7.62-3.1-2.34-5.64-4.66-7.62-6.95-1.98-2.3-3.43-4.66-4.35-7.07-.93-2.42-1.39-5.08-1.39-7.98,0-3.63.74-6.99,2.24-10.1,1.49-3.1,3.55-5.81,6.17-8.1,2.62-2.3,5.7-4.09,9.25-5.38,3.55-1.29,7.38-1.93,11.49-1.93s7.64.3,10.58.91c2.94.6,5.38,1.35,7.32,2.24,1.05.48,1.63.89,1.75,1.21.12.32.1.93-.06,1.81l-2.3,10.28c-.16.73-.44,1.17-.85,1.33-.4.16-1.21.04-2.42-.36-3.79-1.21-7.28-1.93-10.46-2.18-3.19-.24-5.95.04-8.28.85-2.34.81-4.17,2.08-5.5,3.81-1.33,1.73-1.99,3.93-1.99,6.59,0,1.93.87,3.91,2.6,5.92,1.73,2.02,4.54,4.19,8.4,6.53,4.92,3.06,9.01,5.8,12.27,8.22,3.27,2.42,5.87,4.78,7.8,7.08,1.94,2.3,3.31,4.64,4.11,7.01.81,2.38,1.21,5.02,1.21,7.92,0,3.87-.66,7.38-1.99,10.52-1.33,3.14-3.17,6.01-5.5,8.58Z"/>
    <path class="cls-1" d="M352.57,321.12c-.89,0-1.57-.1-2.06-.3-.48-.2-.93-.79-1.33-1.75l-7.62-19.96h-37.61l-7.62,19.96c-.4.97-.83,1.55-1.27,1.75-.44.2-1.11.3-1.99.3h-11.73c-1.29,0-2.14-.22-2.54-.67-.4-.44-.36-1.23.12-2.36l35.19-88.04c.56-1.37,1.53-2.06,2.9-2.06h11.73c1.05,0,1.73.14,2.06.42.32.28.68.87,1.09,1.75l34.95,87.92c.48,1.21.54,2.02.18,2.42-.36.4-1.23.6-2.6.6h-11.85ZM309.64,284.23h26.24l-13.06-34.22-13.18,34.22Z"/>
    <path class="cls-1" d="M378.21,321.12c-.73,0-1.29-.08-1.69-.24-.4-.16-.6-.8-.6-1.93v-88.28c0-.89.1-1.55.3-2,.2-.44.87-.66,2-.66h21.53c4.51,0,8.61.5,12.27,1.51,3.67,1.01,6.79,2.52,9.37,4.54,2.58,2.02,4.57,4.58,5.99,7.68,1.41,3.1,2.12,6.71,2.12,10.82,0,2.02-.3,4.01-.91,5.99-.6,1.98-1.47,3.83-2.6,5.56-1.13,1.73-2.5,3.31-4.11,4.72-1.61,1.41-3.43,2.6-5.44,3.57,2.42.89,4.57,2.06,6.47,3.51,1.89,1.45,3.51,3.09,4.84,4.9,1.33,1.81,2.34,3.73,3.02,5.74.68,2.02,1.03,4.03,1.03,6.05,0,9.19-2.9,16.25-8.71,21.16-5.8,4.92-14.59,7.38-26.36,7.38h-18.5ZM392.12,279.51v26.97h4.84c3.63,0,6.61-.34,8.95-1.03,2.34-.68,4.21-1.61,5.62-2.78,1.41-1.17,2.4-2.58,2.96-4.23.56-1.65.85-3.45.85-5.38s-.3-3.73-.91-5.38c-.6-1.65-1.65-3.08-3.14-4.29-1.49-1.21-3.51-2.16-6.05-2.84-2.54-.68-5.7-1.03-9.49-1.03h-3.63ZM392.36,242.63v23.34h5.32c2.9,0,5.32-.32,7.26-.97,1.93-.64,3.49-1.53,4.66-2.66,1.17-1.13,1.99-2.44,2.48-3.93.48-1.49.73-3.12.73-4.9,0-1.45-.2-2.84-.6-4.17-.4-1.33-1.11-2.48-2.12-3.45-1.01-.97-2.36-1.75-4.05-2.36-1.69-.6-3.79-.91-6.29-.91h-7.38Z"/>
    <path class="cls-1" d="M449.19,321.12c-.89,0-1.51-.16-1.87-.48-.36-.32-.54-.97-.54-1.93v-88.28c0-1.61.81-2.42,2.42-2.42h11.61c1.61,0,2.42.8,2.42,2.42v88.28c0,.97-.18,1.61-.54,1.93-.36.32-.99.48-1.87.48h-11.61Z"/>
  </g>
  <g>
    <path class="cls-2" d="M177.21,164.59h45.41c2.74,0,5.2-1.68,6.19-4.23l41.95-86.9c1.7-4.36-1.51-9.06-6.19-9.06h-45.41c-2.74,0-5.2,1.68-6.19,4.23l-41.95,86.9c-1.7,4.36,1.51,9.06,6.19,9.06Z"/>
    <path class="cls-1" d="M222.77,164.59h-45.41c-2.74,0-5.2-1.68-6.19-4.23L112.15,9.06c-1.7-4.36,1.51-9.06,6.19-9.06h45.41c2.74,0,5.2,1.68,6.19,4.23l59.02,151.29c1.7,4.36-1.51,9.06-6.19,9.06Z"/>
    <path class="cls-2" d="M256.98,164.59h45.41c2.74,0,5.2-1.68,6.19-4.23l41.95-86.9c1.7-4.36-1.51-9.06-6.19-9.06h-45.41c-2.74,0-5.2,1.68-6.19,4.23l-41.95,86.9c-1.7,4.36,1.51,9.06,6.19,9.06Z"/>
    <path class="cls-1" d="M302.55,164.59h-45.41c-2.74,0-5.2-1.68-6.19-4.23L191.92,9.06c-1.7-4.36,1.51-9.06,6.19-9.06h45.41c2.74,0,5.2,1.68,6.19,4.23l59.02,151.29c1.7,4.36-1.51,9.06-6.19,9.06Z"/>
  </g>
</svg>